<svg width="442" height="269" viewBox="0 0 442 269" fill="none" xmlns="http://www.w3.org/2000/svg">
    <path
        d="M20 0C8.9543 0 0 8.95429 0 20V86.5556L26.9424 130.805C28.3785 133.163 28.3785 136.987 26.9424 139.346L0 183.595V248.372C0 259.418 8.95432 268.372 20 268.372H394C405.046 268.372 414 259.418 414 248.372V20C414 8.9543 405.046 0 394 0H20Z"
        fill="#969AF7" />
    <path
        d="M20 0C8.9543 0 0 8.95429 0 20V86.5556L26.9424 130.805C28.3785 133.163 28.3785 136.987 26.9424 139.346L0 183.595V248.372C0 259.418 8.95432 268.372 20 268.372H394C405.046 268.372 414 259.418 414 248.372V20C414 8.9543 405.046 0 394 0H20Z"
        fill="url(#paint0_linear_13_333)" />
    <path
        d="M391.349 66.1997C392.887 63.9064 395.381 63.9064 396.919 66.1997L440.393 131.018C441.931 133.312 441.931 137.03 440.393 139.323L396.919 204.142C395.381 206.435 392.887 206.435 391.349 204.142L347.874 139.323C346.336 137.03 346.336 133.312 347.874 131.018L391.349 66.1997Z"
        fill="#969AF7" />
    <path
        d="M391.349 66.1997C392.887 63.9064 395.381 63.9064 396.919 66.1997L440.393 131.018C441.931 133.312 441.931 137.03 440.393 139.323L396.919 204.142C395.381 206.435 392.887 206.435 391.349 204.142L347.874 139.323C346.336 137.03 346.336 133.312 347.874 131.018L391.349 66.1997Z"
        fill="url(#paint1_linear_13_333)" />
    <defs>
        <linearGradient id="paint0_linear_13_333" x1="-53.7194" y1="-21.0171" x2="441.896" y2="53.5312"
            gradientUnits="userSpaceOnUse">
            <stop offset="0.0851517" stop-color="#041080" />
            <stop offset="1" stop-color="#0926C0" />
        </linearGradient>
        <linearGradient id="paint1_linear_13_333" x1="-53.7194" y1="-21.0171" x2="441.896" y2="53.5312"
            gradientUnits="userSpaceOnUse">
            <stop offset="0.0851517" stop-color="#041080" />
            <stop offset="1" stop-color="#0926C0" />
        </linearGradient>
    </defs>
</svg>