<svg width="440" height="269" viewBox="0 0 440 269" fill="none" xmlns="http://www.w3.org/2000/svg">
<path d="M20 0C8.95431 0 0 8.95429 0 20V248.372C0 259.418 8.95431 268.372 20 268.372H393C404.046 268.372 413 259.418 413 248.372V177.073L438.319 139.323C439.858 137.03 439.858 133.312 438.319 131.018L413 93.2681V20C413 8.9543 404.046 0 393 0H20Z" fill="#969AF7"/>
<path d="M20 0C8.95431 0 0 8.95429 0 20V248.372C0 259.418 8.95431 268.372 20 268.372H393C404.046 268.372 413 259.418 413 248.372V177.073L438.319 139.323C439.858 137.03 439.858 133.312 438.319 131.018L413 93.2681V20C413 8.9543 404.046 0 393 0H20Z" fill="url(#paint0_linear_13_332)"/>
<path d="M20 0C8.95431 0 0 8.95429 0 20V248.372C0 259.418 8.95431 268.372 20 268.372H393C404.046 268.372 413 259.418 413 248.372V177.073L438.319 139.323C439.858 137.03 439.858 133.312 438.319 131.018L413 93.2681V20C413 8.9543 404.046 0 393 0H20Z" fill="url(#paint1_linear_13_332)"/>
<defs>
<linearGradient id="paint0_linear_13_332" x1="219.736" y1="0" x2="219.736" y2="268.372" gradientUnits="userSpaceOnUse">
<stop stop-color="#969AF7"/>
<stop offset="1" stop-color="#686EEC"/>
</linearGradient>
<linearGradient id="paint1_linear_13_332" x1="-53.467" y1="-21.0171" x2="439.923" y2="52.8479" gradientUnits="userSpaceOnUse">
<stop offset="0.0851517" stop-color="#041080"/>
<stop offset="1" stop-color="#0926C0"/>
</linearGradient>
</defs>
</svg>
