<svg width="413" height="299" viewBox="0 0 413 299" fill="none" xmlns="http://www.w3.org/2000/svg">
<path d="M20 0C8.95431 0 0 8.95429 0 20V84.9821L28.0166 130.995C29.4527 133.354 29.4527 137.178 28.0166 139.537L0 185.55V248.372C0 259.418 8.95431 268.372 20 268.372H393C404.046 268.372 413 259.418 413 248.372V20C413 8.9543 404.046 0 393 0H20Z" fill="#969AF7"/>
<path d="M20 0C8.95431 0 0 8.95429 0 20V84.9821L28.0166 130.995C29.4527 133.354 29.4527 137.178 28.0166 139.537L0 185.55V248.372C0 259.418 8.95431 268.372 20 268.372H393C404.046 268.372 413 259.418 413 248.372V20C413 8.9543 404.046 0 393 0H20Z" fill="url(#paint0_linear_13_334)"/>
<path d="M150.208 244.803C148.217 242.891 148.26 239.835 150.304 237.979L205.538 187.839C207.583 185.982 210.855 186.029 212.846 187.941L266.927 239.883C268.918 241.796 268.875 244.851 266.831 246.707L211.597 296.848C209.552 298.704 206.28 298.658 204.288 296.745L150.208 244.803Z" fill="#969AF7"/>
<path d="M150.208 244.803C148.217 242.891 148.26 239.835 150.304 237.979L205.538 187.839C207.583 185.982 210.855 186.029 212.846 187.941L266.927 239.883C268.918 241.796 268.875 244.851 266.831 246.707L211.597 296.848C209.552 298.704 206.28 298.658 204.288 296.745L150.208 244.803Z" fill="url(#paint1_linear_13_334)"/>
<defs>
<linearGradient id="paint0_linear_13_334" x1="-50.2463" y1="-23.3538" x2="416.335" y2="35.7218" gradientUnits="userSpaceOnUse">
<stop offset="0.0851517" stop-color="#041080"/>
<stop offset="1" stop-color="#0926C0"/>
</linearGradient>
<linearGradient id="paint1_linear_13_334" x1="-50.2463" y1="-23.3538" x2="416.335" y2="35.7218" gradientUnits="userSpaceOnUse">
<stop offset="0.0851517" stop-color="#041080"/>
<stop offset="1" stop-color="#0926C0"/>
</linearGradient>
</defs>
</svg>
