<svg width="442" height="269" viewBox="0 0 442 269" fill="none" xmlns="http://www.w3.org/2000/svg">
<path d="M421.822 0C432.867 0 441.822 8.95429 441.822 20V85.8705L414.634 130.575C413.199 132.934 413.199 136.76 414.634 139.119L441.822 183.823V248.372C441.822 259.418 432.867 268.372 421.822 268.372H47.8216C36.7759 268.372 27.8216 259.418 27.8216 248.372V20C27.8216 8.9543 36.7759 0 47.8216 0H421.822Z" fill="#969AF7"/>
<path d="M421.822 0C432.867 0 441.822 8.95429 441.822 20V85.8705L414.634 130.575C413.199 132.934 413.199 136.76 414.634 139.119L441.822 183.823V248.372C441.822 259.418 432.867 268.372 421.822 268.372H47.8216C36.7759 268.372 27.8216 259.418 27.8216 248.372V20C27.8216 8.9543 36.7759 0 47.8216 0H421.822Z" fill="url(#paint0_linear_13_336)"/>
<path d="M50.1983 65.9281C48.6601 63.6347 46.1662 63.6347 44.628 65.9281L1.15363 130.747C-0.384545 133.04 -0.384543 136.758 1.15363 139.051L44.6281 203.87C46.1662 206.163 48.6601 206.163 50.1983 203.87L93.6727 139.051C95.2109 136.758 95.2109 133.04 93.6727 130.747L50.1983 65.9281Z" fill="#969AF7"/>
<path d="M50.1983 65.9281C48.6601 63.6347 46.1662 63.6347 44.628 65.9281L1.15363 130.747C-0.384545 133.04 -0.384543 136.758 1.15363 139.051L44.6281 203.87C46.1662 206.163 48.6601 206.163 50.1983 203.87L93.6727 139.051C95.2109 136.758 95.2109 133.04 93.6727 130.747L50.1983 65.9281Z" fill="url(#paint1_linear_13_336)"/>
<defs>
<linearGradient id="paint0_linear_13_336" x1="-53.7528" y1="-21.0171" x2="442.157" y2="53.6219" gradientUnits="userSpaceOnUse">
<stop offset="0.0851517" stop-color="#041080"/>
<stop offset="1" stop-color="#0926C0"/>
</linearGradient>
<linearGradient id="paint1_linear_13_336" x1="-53.7528" y1="-21.0171" x2="442.157" y2="53.6219" gradientUnits="userSpaceOnUse">
<stop offset="0.0851517" stop-color="#041080"/>
<stop offset="1" stop-color="#0926C0"/>
</linearGradient>
</defs>
</svg>
