<svg width="1920" height="850" viewBox="0 0 1920 850" fill="none" xmlns="http://www.w3.org/2000/svg">
<path d="M0 821L4.81203 820.544L9.62406 820.089L14.4361 819.634L19.2481 819.179L24.0602 818.725L28.8722 818.271L33.6842 817.818L38.4962 817.365L43.3083 816.914L48.1203 816.463L52.9323 816.014L57.7444 815.566L62.5564 815.119L67.3684 814.674L72.1805 814.23L76.9925 813.788L81.8045 813.348L86.6165 812.909L91.4286 812.473L96.2406 812.039L101.053 811.606L105.865 811.177L110.677 810.749L115.489 810.324L120.301 809.902L125.113 809.483L129.925 809.066L134.737 808.652L139.549 808.242L144.361 807.834L149.173 807.43L153.985 807.029L158.797 806.632L163.609 806.238L168.421 805.848L173.233 805.461L178.045 805.078L182.857 804.7L187.669 804.325L192.481 803.954L197.293 803.588L202.105 803.226L206.917 802.868L211.729 802.515L216.541 802.166L221.353 801.822L226.165 801.483L230.977 801.148L235.789 800.819L240.601 800.494L245.414 800.174L250.226 799.86L255.038 799.551L259.85 799.247L264.662 798.948L269.474 798.655L274.286 798.367L279.098 798.086L283.91 797.809L288.722 797.539L293.534 797.274L298.346 797.015L303.158 796.762L307.97 796.515L312.782 796.273L317.594 796.038L322.406 795.81L327.218 795.587L332.03 795.371L336.842 795.161L341.654 794.957L346.466 794.76L351.278 794.569L356.09 794.385L360.902 794.208L365.714 794.036L370.526 793.872L375.338 793.714L380.15 793.564L384.962 793.419L389.774 793.282L394.586 793.151L399.398 793.028L404.211 792.911L409.023 792.801L413.835 792.698L418.647 792.603L423.459 792.514L428.271 792.432L433.083 792.357L437.895 792.289L442.707 792.229L447.519 792.175L452.331 792.129L457.143 792.089L461.955 792.057L466.767 792.032L471.579 792.014L476.391 792.004L481.203 792L486.015 792.004L490.827 792.014L495.639 792.032L500.451 792.057L505.263 792.089L510.075 792.129L514.887 792.175L519.699 792.229L524.511 792.289L529.323 792.357L534.135 792.432L538.947 792.514L543.759 792.603L548.571 792.698L553.383 792.801L558.195 792.911L563.008 793.028L567.82 793.151L572.632 793.282L577.444 793.419L582.256 793.564L587.068 793.714L591.88 793.872L596.692 794.036L601.504 794.208L606.316 794.385L611.128 794.569L615.94 794.76L620.752 794.957L625.564 795.161L630.376 795.371L635.188 795.587L640 795.81L644.812 796.038L649.624 796.273L654.436 796.515L659.248 796.762L664.06 797.015L668.872 797.274L673.684 797.539L678.496 797.809L683.308 798.086L688.12 798.367L692.932 798.655L697.744 798.948L702.556 799.247L707.368 799.551L712.18 799.86L716.992 800.174L721.805 800.494L726.617 800.819L731.429 801.148L736.241 801.483L741.053 801.822L745.865 802.166L750.677 802.515L755.489 802.868L760.301 803.226L765.113 803.588L769.925 803.954L774.737 804.325L779.549 804.7L784.361 805.078L789.173 805.461L793.985 805.848L798.797 806.238L803.609 806.632L808.421 807.029L813.233 807.43L818.045 807.834L822.857 808.242L827.669 808.652L832.481 809.066L837.293 809.483L842.105 809.902L846.917 810.324L851.729 810.749L856.541 811.177L861.353 811.606L866.165 812.039L870.977 812.473L875.789 812.909L880.601 813.348L885.414 813.788L890.226 814.23L895.038 814.674L899.85 815.119L904.662 815.566L909.474 816.014L914.286 816.463L919.098 816.914L923.91 817.365L928.722 817.818L933.534 818.271L938.346 818.725L943.158 819.179L947.97 819.634L952.782 820.089L957.594 820.544L962.406 821L967.218 821.456L972.03 821.911L976.842 822.366L981.654 822.821L986.466 823.275L991.278 823.729L996.09 824.182L1000.9 824.635L1005.71 825.086L1010.53 825.537L1015.34 825.986L1020.15 826.434L1024.96 826.881L1029.77 827.326L1034.59 827.77L1039.4 828.212L1044.21 828.652L1049.02 829.091L1053.83 829.527L1058.65 829.961L1063.46 830.394L1068.27 830.823L1073.08 831.251L1077.89 831.676L1082.71 832.098L1087.52 832.517L1092.33 832.934L1097.14 833.348L1101.95 833.758L1106.77 834.166L1111.58 834.57L1116.39 834.971L1121.2 835.368L1126.02 835.762L1130.83 836.152L1135.64 836.539L1140.45 836.922L1145.26 837.3L1150.08 837.675L1154.89 838.046L1159.7 838.412L1164.51 838.774L1169.32 839.132L1174.14 839.485L1178.95 839.834L1183.76 840.178L1188.57 840.517L1193.38 840.852L1198.2 841.181L1203.01 841.506L1207.82 841.826L1212.63 842.14L1217.44 842.449L1222.26 842.753L1227.07 843.052L1231.88 843.345L1236.69 843.633L1241.5 843.914L1246.32 844.191L1251.13 844.461L1255.94 844.726L1260.75 844.985L1265.56 845.238L1270.38 845.485L1275.19 845.727L1280 845.962L1284.81 846.19L1289.62 846.413L1294.44 846.629L1299.25 846.839L1304.06 847.043L1308.87 847.24L1313.68 847.431L1318.5 847.615L1323.31 847.792L1328.12 847.964L1332.93 848.128L1337.74 848.286L1342.56 848.436L1347.37 848.581L1352.18 848.718L1356.99 848.849L1361.8 848.972L1366.62 849.089L1371.43 849.199L1376.24 849.302L1381.05 849.397L1385.86 849.486L1390.68 849.568L1395.49 849.643L1400.3 849.711L1405.11 849.771L1409.92 849.825L1414.74 849.871L1419.55 849.911L1424.36 849.943L1429.17 849.968L1433.98 849.986L1438.8 849.996L1443.61 850L1448.42 849.996L1453.23 849.986L1458.05 849.968L1462.86 849.943L1467.67 849.911L1472.48 849.871L1477.29 849.825L1482.11 849.771L1486.92 849.711L1491.73 849.643L1496.54 849.568L1501.35 849.486L1506.17 849.397L1510.98 849.302L1515.79 849.199L1520.6 849.089L1525.41 848.972L1530.23 848.849L1535.04 848.718L1539.85 848.581L1544.66 848.436L1549.47 848.286L1554.29 848.128L1559.1 847.964L1563.91 847.792L1568.72 847.615L1573.53 847.431L1578.35 847.24L1583.16 847.043L1587.97 846.839L1592.78 846.629L1597.59 846.413L1602.41 846.19L1607.22 845.962L1612.03 845.727L1616.84 845.485L1621.65 845.238L1626.47 844.985L1631.28 844.726L1636.09 844.461L1640.9 844.191L1645.71 843.914L1650.53 843.633L1655.34 843.345L1660.15 843.052L1664.96 842.753L1669.77 842.449L1674.59 842.14L1679.4 841.826L1684.21 841.506L1689.02 841.181L1693.83 840.852L1698.65 840.517L1703.46 840.178L1708.27 839.834L1713.08 839.485L1717.89 839.132L1722.71 838.774L1727.52 838.412L1732.33 838.046L1737.14 837.675L1741.95 837.3L1746.77 836.922L1751.58 836.539L1756.39 836.152L1761.2 835.762L1766.01 835.368L1770.83 834.971L1775.64 834.57L1780.45 834.166L1785.26 833.758L1790.08 833.348L1794.89 832.934L1799.7 832.517L1804.51 832.098L1809.32 831.676L1814.14 831.251L1818.95 830.823L1823.76 830.394L1828.57 829.961L1833.38 829.527L1838.2 829.091L1843.01 828.652L1847.82 828.212L1852.63 827.77L1857.44 827.326L1862.26 826.881L1867.07 826.434L1871.88 825.986L1876.69 825.537L1881.5 825.086L1886.32 824.635L1891.13 824.182L1895.94 823.729L1900.75 823.275L1905.56 822.821L1910.38 822.366L1915.19 821.911L1920 821.456V0H0V821Z" fill="#07086C"/>
</svg>
