<svg width="1920" height="728" viewBox="0 0 1920 728" fill="none" xmlns="http://www.w3.org/2000/svg">
<path d="M1920 29L1689.02 48.8519L1684.21 49.1815L1679.4 49.5061L1674.59 49.8257L1669.77 50.1401L1664.96 50.4493L1660.15 50.7532L1655.34 51.0518L1650.53 51.3449L1645.71 51.6325L1640.9 51.9145L1636.09 52.1909L1631.28 52.4615L1626.47 52.7263L1621.65 52.9854L1616.84 53.2384L1612.03 53.4855L1607.22 53.7266L1602.41 53.9615L1597.59 54.1903L1592.78 54.4129L1587.97 54.6292L1583.16 54.8392L1578.35 55.0428L1573.53 55.24L1568.72 55.4307L1563.91 55.6149L1559.1 55.7925L1554.29 55.9635L1549.47 56.1279L1544.66 56.2855L1539.85 56.4365L1535.04 56.5806L1530.23 56.718L1525.41 56.8485L1520.6 56.9722L1515.79 57.0889L1510.98 57.1987L1506.17 57.3016L1501.35 57.3975L1496.54 57.4863L1491.73 57.5682L1486.92 57.6429L1482.11 57.7107L1477.29 57.7713L1472.48 57.8249L1467.67 57.8713L1462.86 57.9106L1458.05 57.9427L1453.23 57.9678L1448.42 57.9857L1443.61 57.9964L1438.8 58L1433.98 57.9964L1429.17 57.9857L1424.36 57.9678L1419.55 57.9427L1414.74 57.9106L1409.92 57.8713L1405.11 57.8249L1400.3 57.7713L1395.49 57.7107L1390.68 57.6429L1385.86 57.5682L1381.05 57.4863L1376.24 57.3975L1371.43 57.3016L1366.62 57.1987L1361.8 57.0889L1356.99 56.9722L1352.18 56.8485L1347.37 56.718L1342.56 56.5806L1337.74 56.4365L1332.93 56.2855L1328.12 56.1279L1323.31 55.9635L1318.5 55.7925L1313.68 55.6149L1308.87 55.4307L1304.06 55.24L1299.25 55.0428L1294.44 54.8392L1289.62 54.6292L1284.81 54.4129L1280 54.1903L1275.19 53.9615L1270.38 53.7266L1265.56 53.4855L1260.75 53.2384L1255.94 52.9854L1251.13 52.7263L1246.32 52.4615L1241.5 52.1909L1236.69 51.9145L1231.88 51.6325L1227.07 51.3449L1222.26 51.0518L1217.44 50.7532L1212.63 50.4493L1207.82 50.1401L1203.01 49.8257L1198.2 49.5061L1193.38 49.1815L1188.57 48.8519L726.617 9.14813L721.805 8.81854L716.993 8.4939L712.181 8.17432L707.369 7.85992L702.556 7.55072L697.744 7.24677L692.932 6.94824L688.12 6.65509L683.308 6.36749L678.496 6.08551L673.684 5.80914L668.872 5.53851L664.06 5.27368L659.248 5.01465L654.436 4.7616L649.624 4.51453L644.812 4.27344L640 4.03845L635.188 3.80969L630.376 3.5871L625.564 3.37079L620.752 3.16083L615.94 2.95721L611.128 2.76001L606.316 2.56934L601.504 2.38513L596.692 2.20752L591.88 2.0365L587.068 1.87213L582.256 1.71448L577.444 1.56354L572.632 1.41937L567.82 1.28198L563.008 1.15149L558.196 1.02783L553.384 0.911072L548.572 0.80127L543.76 0.698425L538.947 0.602539L534.135 0.513672L529.323 0.431824L524.511 0.357056L519.699 0.289307L514.887 0.228699L510.075 0.17511L505.263 0.128723L500.451 0.0894165L495.639 0.057251L490.827 0.0321655L486.015 0.0142822L481.203 0.00360107L476.391 0L471.579 0.00360107L466.767 0.0142822L461.955 0.0321655L457.143 0.057251L452.331 0.0894165L447.519 0.128723L442.707 0.17511L437.895 0.228699L433.083 0.289307L428.271 0.357056L423.459 0.431824L418.647 0.513672L413.835 0.602539L409.023 0.698425L404.211 0.80127L399.399 0.911072L394.587 1.02783L389.775 1.15149L384.963 1.28198L380.15 1.41937L375.338 1.56354L370.526 1.71448L365.714 1.87213L360.902 2.0365L356.09 2.20752L351.278 2.38513L346.466 2.56934L341.654 2.76001L336.842 2.95721L332.03 3.16083L327.218 3.37079L322.406 3.5871L317.594 3.80969L312.782 4.03845L307.97 4.27344L303.158 4.51453L298.346 4.7616L293.534 5.01465L288.722 5.27368L283.91 5.53851L279.098 5.80914L274.286 6.08551L269.474 6.36749L264.662 6.65509L259.85 6.94824L255.038 7.24677L250.226 7.55072L245.414 7.85992L240.602 8.17432L235.79 8.4939L230.978 8.81854L226.166 9.14813L0.00012207 28.5445V523H1920V29Z" fill="#0809A7"/>
<path d="M0 699L230.977 679.148L235.789 678.819L240.601 678.494L245.414 678.174L250.226 677.86L255.038 677.551L259.85 677.247L264.662 676.948L269.474 676.655L274.286 676.367L279.098 676.086L283.91 675.809L288.722 675.539L293.534 675.274L298.346 675.015L303.158 674.762L307.97 674.515L312.782 674.273L317.594 674.038L322.406 673.81L327.218 673.587L332.03 673.371L336.842 673.161L341.654 672.957L346.466 672.76L351.278 672.569L356.09 672.385L360.902 672.208L365.714 672.036L370.526 671.872L375.338 671.714L380.15 671.564L384.962 671.419L389.774 671.282L394.586 671.151L399.398 671.028L404.211 670.911L409.023 670.801L413.835 670.698L418.647 670.603L423.459 670.514L428.271 670.432L433.083 670.357L437.895 670.289L442.707 670.229L447.519 670.175L452.331 670.129L457.143 670.089L461.955 670.057L466.767 670.032L471.579 670.014L476.391 670.004L481.203 670L486.015 670.004L490.827 670.014L495.639 670.032L500.451 670.057L505.263 670.089L510.075 670.129L514.887 670.175L519.699 670.229L524.511 670.289L529.323 670.357L534.135 670.432L538.947 670.514L543.759 670.603L548.571 670.698L553.383 670.801L558.195 670.911L563.008 671.028L567.82 671.151L572.632 671.282L577.444 671.419L582.256 671.564L587.068 671.714L591.88 671.872L596.692 672.036L601.504 672.208L606.316 672.385L611.128 672.569L615.94 672.76L620.752 672.957L625.564 673.161L630.376 673.371L635.188 673.587L640 673.81L644.812 674.038L649.624 674.273L654.436 674.515L659.248 674.762L664.06 675.015L668.872 675.274L673.684 675.539L678.496 675.809L683.308 676.086L688.12 676.367L692.932 676.655L697.744 676.948L702.556 677.247L707.368 677.551L712.18 677.86L716.992 678.174L721.805 678.494L726.617 678.819L731.429 679.148L1193.38 718.852L1198.2 719.181L1203.01 719.506L1207.82 719.826L1212.63 720.14L1217.44 720.449L1222.26 720.753L1227.07 721.052L1231.88 721.345L1236.69 721.633L1241.5 721.914L1246.32 722.191L1251.13 722.461L1255.94 722.726L1260.75 722.985L1265.56 723.238L1270.38 723.485L1275.19 723.727L1280 723.962L1284.81 724.19L1289.62 724.413L1294.44 724.629L1299.25 724.839L1304.06 725.043L1308.87 725.24L1313.68 725.431L1318.5 725.615L1323.31 725.792L1328.12 725.964L1332.93 726.128L1337.74 726.286L1342.56 726.436L1347.37 726.581L1352.18 726.718L1356.99 726.849L1361.8 726.972L1366.62 727.089L1371.43 727.199L1376.24 727.302L1381.05 727.397L1385.86 727.486L1390.68 727.568L1395.49 727.643L1400.3 727.711L1405.11 727.771L1409.92 727.825L1414.74 727.871L1419.55 727.911L1424.36 727.943L1429.17 727.968L1433.98 727.986L1438.8 727.996L1443.61 728L1448.42 727.996L1453.23 727.986L1458.05 727.968L1462.86 727.943L1467.67 727.911L1472.48 727.871L1477.29 727.825L1482.11 727.771L1486.92 727.711L1491.73 727.643L1496.54 727.568L1501.35 727.486L1506.17 727.397L1510.98 727.302L1515.79 727.199L1520.6 727.089L1525.41 726.972L1530.23 726.849L1535.04 726.718L1539.85 726.581L1544.66 726.436L1549.47 726.286L1554.29 726.128L1559.1 725.964L1563.91 725.792L1568.72 725.615L1573.53 725.431L1578.35 725.24L1583.16 725.043L1587.97 724.839L1592.78 724.629L1597.59 724.413L1602.41 724.19L1607.22 723.962L1612.03 723.727L1616.84 723.485L1621.65 723.238L1626.47 722.985L1631.28 722.726L1636.09 722.461L1640.9 722.191L1645.71 721.914L1650.53 721.633L1655.34 721.345L1660.15 721.052L1664.96 720.753L1669.77 720.449L1674.59 720.14L1679.4 719.826L1684.21 719.506L1689.02 719.181L1693.83 718.852L1920 699.456V181H0V699Z" fill="#0809A7"/>
</svg>
